<svg xmlns="http://www.w3.org/2000/svg" xmlns:xlink="http://www.w3.org/1999/xlink" width="540.416" height="423.745" viewBox="0 0 540.416 423.745">
  <defs>
    <linearGradient id="linear-gradient" x1="0.582" y1="0.813" x2="-0.12" y2="-0.888" gradientUnits="objectBoundingBox">
      <stop offset="0" stop-color="#010101" stop-opacity="0"/>
      <stop offset="0.54" stop-color="#010101" stop-opacity="0.541"/>
      <stop offset="0.95" stop-color="#010101"/>
    </linearGradient>
    <linearGradient id="linear-gradient-2" x1="0.385" y1="0.957" x2="0.806" y2="-0.658" gradientUnits="objectBoundingBox">
      <stop offset="0" stop-color="#010101" stop-opacity="0"/>
      <stop offset="0.95" stop-color="#010101"/>
    </linearGradient>
    <linearGradient id="linear-gradient-3" x1="0.447" y1="-3.272" x2="0.621" y2="9.058" xlink:href="#linear-gradient-2"/>
    <linearGradient id="linear-gradient-4" x1="0.455" y1="-2.699" x2="0.629" y2="9.63" xlink:href="#linear-gradient-2"/>
    <linearGradient id="linear-gradient-5" x1="0.437" y1="-3.977" x2="0.611" y2="8.353" xlink:href="#linear-gradient-2"/>
    <linearGradient id="linear-gradient-6" x1="0.444" y1="-3.465" x2="0.618" y2="8.865" xlink:href="#linear-gradient-2"/>
    <linearGradient id="linear-gradient-7" x1="0.426" y1="-4.734" x2="0.601" y2="7.599" xlink:href="#linear-gradient-2"/>
    <linearGradient id="linear-gradient-8" x1="0.403" y1="-6.314" x2="0.578" y2="6.015" xlink:href="#linear-gradient-2"/>
    <linearGradient id="linear-gradient-9" x1="0.426" y1="-4.743" x2="0.6" y2="7.586" xlink:href="#linear-gradient-2"/>
    <linearGradient id="linear-gradient-10" x1="0.448" y1="-5.572" x2="0.667" y2="20.045" xlink:href="#linear-gradient-2"/>
    <linearGradient id="linear-gradient-11" x1="0.455" y1="-4.745" x2="0.674" y2="20.89" xlink:href="#linear-gradient-2"/>
    <linearGradient id="linear-gradient-12" x1="0.44" y1="-6.556" x2="0.659" y2="19.066" xlink:href="#linear-gradient-2"/>
    <linearGradient id="linear-gradient-13" x1="0.446" y1="-5.809" x2="0.665" y2="19.807" xlink:href="#linear-gradient-2"/>
    <linearGradient id="linear-gradient-14" x1="0.431" y1="-7.573" x2="0.65" y2="18.005" xlink:href="#linear-gradient-2"/>
    <linearGradient id="linear-gradient-15" x1="0.412" y1="-9.813" x2="0.631" y2="15.765" xlink:href="#linear-gradient-2"/>
    <linearGradient id="linear-gradient-16" x1="0.43" y1="-7.624" x2="0.65" y2="18.002" xlink:href="#linear-gradient-2"/>
    <linearGradient id="linear-gradient-17" x1="0.525" y1="0.511" x2="0.482" y2="0.416" gradientUnits="objectBoundingBox">
      <stop offset="0" stop-color="#fff" stop-opacity="0"/>
      <stop offset="0.95" stop-color="#fff"/>
    </linearGradient>
    <linearGradient id="linear-gradient-18" x1="-0.165" y1="0.484" x2="6.62" y2="0.647" xlink:href="#linear-gradient-2"/>
    <linearGradient id="linear-gradient-19" x1="0.446" y1="0.393" x2="1.527" y2="1.693" xlink:href="#linear-gradient-2"/>
    <linearGradient id="linear-gradient-20" x1="0.048" y1="0.038" x2="1.331" y2="1.611" xlink:href="#linear-gradient-2"/>
    <linearGradient id="linear-gradient-21" x1="0.084" y1="-0.172" x2="2.844" y2="4.151" xlink:href="#linear-gradient-17"/>
    <linearGradient id="linear-gradient-22" x1="0" y1="0.5" x2="0.999" y2="0.5" xlink:href="#linear-gradient-2"/>
    <linearGradient id="linear-gradient-23" x1="-0.003" y1="0.495" x2="1.003" y2="0.495" xlink:href="#linear-gradient-2"/>
    <linearGradient id="linear-gradient-24" x1="3.22" y1="4.091" x2="4.27" y2="4.091" xlink:href="#linear-gradient-2"/>
    <linearGradient id="linear-gradient-25" x1="1.465" y1="0.906" x2="2.458" y2="0.906" xlink:href="#linear-gradient-17"/>
    <linearGradient id="linear-gradient-26" x1="3.14" y1="2.134" x2="3.49" y2="4.726" xlink:href="#linear-gradient-2"/>
    <linearGradient id="linear-gradient-27" x1="2.579" y1="2.411" x2="3.644" y2="0.625" xlink:href="#linear-gradient-2"/>
  </defs>
  <g id="Creative_Process__Monochromatic_1_" data-name="Creative Process _Monochromatic (1)" transform="translate(-0.002 0.003)">
    <path id="Path_1375" data-name="Path 1375" d="M68.038,121.847C51.818,156.719,26.793,187.5,13.721,223.6S3.208,305.9,34.31,329.13C67.2,353.7,115.4,342.084,153.515,357.841c29.679,12.272,50.041,39.8,78.28,54.99,14.032,7.576,29.662,11.843,45.453,14.537,82.3,14.048,167.9-15.572,234.168-65.436,9.68-7.281,19.191-15.151,25.647-25.319,16.473-25.934,9.368-59.973-3.022-88.019s-29.7-54.973-32.768-85.393c-2.9-28.736,6.574-61.017-10.446-84.585-19.006-26.321-59.173-25.1-90.906-16.456s-65.453,21.885-96.209,10.463C256.719,55.131,221.922,5.579,165.644,7.153,106.311,8.82,87.768,79.407,68.038,121.847Z" transform="translate(-6.28 -7.12)" fill="#a9006f" opacity="0.24" style="isolation: isolate"/>
    <path id="Path_1376" data-name="Path 1376" d="M296.842,136.284a16.481,16.481,0,0,1-2.239,9.436c-3.5,6.33-10.665,11.027-17.912,12.9-10.572,2.7-21.725,1.38-32.541,2.828a63.458,63.458,0,0,0-28.021,10.993c-9,6.363-18.518,15.639-29.191,12.626-9.065-2.525-13.274-15.269-7.491-22.727a85.57,85.57,0,0,0-42,5.623c-5.32,2.146-10.538,4.882-16.254,5.252s-12.171-2.424-13.7-7.929c-1.751-6.2,3.443-12.382,9.259-15.235a68.042,68.042,0,0,1,9.259-3.443,41.944,41.944,0,0,0,8.6-3.746,16.262,16.262,0,0,0,3.687-3.131c3.367-3.779,5.05-9.032,2.424-13.156a12.239,12.239,0,0,0-5.892-4.512c-7.441-2.98-15.951-1.6-23.695-3.662s-14.991-10.942-10.538-17.676c3.939-5.833,12.079-5.648,21.169-4.209,9.865,1.532,20.807,4.579,28.619,2.98h0a11.842,11.842,0,0,0,9.739-9.032c2.736-9.646-13.855-23.509.522-30.975,9.259-4.789,19.419,7.929,29.191,3.813,6.911-2.921,7.9-12.138,8.173-19.637s2.525-16.834,9.89-18.341c5.412-1.1,10.724,3.316,12.626,8.51a20.05,20.05,0,0,1,1.136,5.193,52.708,52.708,0,0,1-.345,11.245c-.278,2.736-.522,5.623.673,8.055,1.97,3.99,6.237,4.823,10.631,3.8a21.464,21.464,0,0,0,10.1-5.623c5.707-5.774,11.515-13.729,19.629-12.929,5.564.547,9.006,4.916,10.538,10.387a27.777,27.777,0,0,1,.152,14.1c-2.576,9.831-8.173,19.722-5.5,29.528C271.885,113.642,295.7,119.753,296.842,136.284Z" transform="translate(-20.992 -9.975)" fill="#a9006f"/>
    <path id="Path_1377" data-name="Path 1377" d="M299.008,138.9a16.481,16.481,0,0,1-2.239,9.436,36.146,36.146,0,0,1-6.389,1.961c-10.572,2.214-21.725,1.136-32.541,2.306a72.455,72.455,0,0,0-28.021,8.973c-9.006,5.16-18.518,12.718-29.157,10.32-9.065-2.054-13.308-12.441-7.576-18.518a103.38,103.38,0,0,0-41.994,4.579c-5.286,1.751-10.538,3.965-16.254,4.268s-11.986,2.677-13.527-1.784c-1.5-4.326,2.062-8.6,6.734-11.178a14.881,14.881,0,0,1,2.525-1.229,59.537,59.537,0,0,0,9.89-5.715,79.544,79.544,0,0,1,7.879-4.831c5.471-2.761,9.495-8.821,6.086-13.274a11.991,11.991,0,0,0-5.892-3.687c-7.466-2.424-15.942-1.288-23.686-2.98s-15.025-8.914-10.572-14.309c2.121-2.576,5.53-3.712,9.646-3.99,9.865,1.532,20.807,4.579,28.619,2.98h0c9.983,1.077,18.594.4,21.3-7.348s-13.888-19.107.488-25.193c9.259-3.9,19.452,6.456,29.191,3.106,6.944-2.4,7.9-9.89,8.207-15.993s2.508-13.8,9.848-14.991a9.436,9.436,0,0,1,2.273-.093,52.709,52.709,0,0,1-.362,11.178c-.278,2.736-.522,5.623.673,8.055,1.97,3.99,6.237,4.823,10.631,3.8a7.231,7.231,0,0,0,.926,3.906c3.594,5.892,14.991,3.224,20.706-1.507,5.471-4.512,11-10.656,18.619-10.564a27.777,27.777,0,0,1,.151,14.1c-2.576,9.831-8.173,19.722-5.5,29.528C274.051,116.257,297.863,122.368,299.008,138.9Z" transform="translate(-23.158 -12.591)" fill="url(#linear-gradient)"/>
    <path id="Path_1378" data-name="Path 1378" d="M175.584,43c-2.281-1.911-4.352-4.646-3.906-7.576a5.286,5.286,0,0,1,7.449-4.032c2.7,1.237,3.88,4.52,3.889,7.5,0,1.574.118,6.422-1.582,7.205S176.72,43.947,175.584,43Z" transform="translate(-32.448 -10.884)" fill="#a9006f"/>
    <path id="Path_1379" data-name="Path 1379" d="M103.37,146.747a4.36,4.36,0,0,0-2.323,2.382c-1.683,3.367-1.4,8.047,1.641,10.277,4.7,3.443,13.468,2.635,14.133-4.209C117.4,149.432,108.295,145.156,103.37,146.747Z" transform="translate(-21.117 -29.167)" fill="#a9006f"/>
    <path id="Path_1380" data-name="Path 1380" d="M150.944,36.132c-.194-1.549-1.557-2.651-2.82-3.577-2.188-1.608-5.244-3.232-7.39-1.557-1.448,1.128-1.616,3.367-.892,5.05a12.626,12.626,0,0,0,3.527,4.209,9.528,9.528,0,0,0,3.619,2.332,3.25,3.25,0,0,0,3.763-1.38c.623-1.3.345-3.417,1.768-3.678" transform="translate(-27.353 -10.788)" fill="#a9006f"/>
    <path id="Path_1381" data-name="Path 1381" d="M106.432,82.691a3.257,3.257,0,0,0-5.463,1.279,4.991,4.991,0,0,0,1.17,4.427,4.52,4.52,0,0,0,2.7,1.843c1.919.278,3.628-1.515,4.049-3.367a4.3,4.3,0,0,0-.345-3.055,2.685,2.685,0,0,0-2.525-1.431" transform="translate(-21.241 -18.922)" fill="#a9006f"/>
    <path id="Path_1382" data-name="Path 1382" d="M151.428,55.813a2.222,2.222,0,0,0-3.7.842,3.367,3.367,0,0,0,.8,3.013,3.039,3.039,0,0,0,1.843,1.254c1.3.194,2.466-1.027,2.752-2.315a2.87,2.87,0,0,0-.236-2.079,1.843,1.843,0,0,0-1.768-.951" transform="translate(-28.654 -14.72)" fill="#a9006f"/>
    <path id="Path_1383" data-name="Path 1383" d="M228.94,362.706c27.651-1.742,59.577.269,76.6,22.146,6.616,8.51,10.151,19.242,17.567,27.07,14.5,15.336,38.576,15.025,59.636,13.6,22.137-1.49,46.438-3.939,61.842-19.915,20.429-21.186,18.047-59.316,42.229-76.092,9.722-6.734,21.961-8.518,32.743-13.375s21.043-15.319,18.787-26.935c-2.475-12.8-17.676-18.055-30.428-20.614A765.63,765.63,0,0,0,228.9,264.83c-23.939,4.116-48.719,9.865-67.338,25.462-15.1,12.626-32.693,44.738-15.538,61.875C163.6,369.76,207.231,364.078,228.94,362.706Z" transform="translate(-27.279 -46.168)" fill="#a9006f" opacity="0.24" style="isolation: isolate"/>
    <path id="Path_1384" data-name="Path 1384" d="M203.238,232.063c158.244-37.7,237.072,40.167,244.513,96.218,6.22,46.834-16.262,112.042-99.2,91.26-62.658-15.707-9.091-63.323-63.315-74.56-40.664-8.417-121.663,1.33-155.627-18.249C125.968,324.628,45.019,269.755,203.238,232.063Z" transform="translate(-22.015 -41.152)" fill="#a9006f"/>
    <path id="Path_1385" data-name="Path 1385" d="M203.147,232.063c158.244-37.7,237.072,40.167,244.513,96.218,6.22,46.834-16.262,112.042-99.2,91.26-62.658-15.707-9.091-63.323-63.315-74.56C243.9,336.42,161.061,346.6,128.04,325.84,125.026,323.946,44.928,269.755,203.147,232.063Z" transform="translate(-21.923 -41.152)" fill="url(#linear-gradient-2)"/>
    <path id="Path_1386" data-name="Path 1386" d="M119.8,302.851s-75.385-49.594,82.834-87.287S439.7,255.739,447.142,311.781c6.22,46.834-16.262,112.05-99.2,91.26-62.658-15.707-9.091-63.323-63.315-74.56C239.6,319.146,145.1,332.117,119.8,302.851Z" transform="translate(-21.405 -38.541)" fill="#a9006f"/>
    <path id="Path_1387" data-name="Path 1387" d="M213.989,258.192a8.535,8.535,0,0,1-1.263,5c-3.417,6.2-13.745,11.17-26.211,11.91-13.072.842-24.41-3.274-28.046-9.511a8.628,8.628,0,0,1-1.271-3.948c-.488-8.417,11.784-15.993,27.482-16.91S213.467,249.808,213.989,258.192Z" transform="translate(-30.164 -44.714)" fill="url(#linear-gradient-3)"/>
    <path id="Path_1388" data-name="Path 1388" d="M317.675,234.623a8.872,8.872,0,0,1-1.237,5.05h0c-3.451,6.2-13.737,11.128-26.211,11.868-13.064.842-24.41-3.274-28.038-9.512a8.1,8.1,0,0,1-1.271-3.939c-.5-8.417,11.784-15.993,27.449-16.919S317.178,226.239,317.675,234.623Z" transform="translate(-46.58 -40.985)" fill="url(#linear-gradient-4)"/>
    <path id="Path_1389" data-name="Path 1389" d="M292.558,281.752a8.644,8.644,0,0,1-1.271,5.008c-3.417,6.2-13.737,11.161-26.211,11.9-13.072.842-24.41-3.274-28.046-9.511a8.417,8.417,0,0,1-1.263-3.948c-.5-8.417,11.784-15.993,27.474-16.91S292.028,273.368,292.558,281.752Z" transform="translate(-42.599 -48.443)" fill="url(#linear-gradient-5)"/>
    <path id="Path_1390" data-name="Path 1390" d="M405.688,260.153a8.569,8.569,0,0,1-1.271,5.008c-3.417,6.2-13.737,11.17-26.211,11.91-13.064.842-24.41-3.283-28.038-9.52a8.468,8.468,0,0,1-1.271-3.939c-.5-8.417,11.784-15.993,27.482-16.91S405.158,251.77,405.688,260.153Z" transform="translate(-60.505 -45.026)" fill="url(#linear-gradient-6)"/>
    <path id="Path_1391" data-name="Path 1391" d="M475.215,304.361a8.8,8.8,0,0,1-1.229,5.05c-3.451,6.2-13.779,11.17-26.245,11.9-13.106.842-24.41-3.274-28.046-9.545a8.417,8.417,0,0,1-1.237-3.906c-.522-8.417,11.784-15.993,27.449-16.91S474.684,295.978,475.215,304.361Z" transform="translate(-71.514 -52.029)" fill="url(#linear-gradient-7)"/>
    <path id="Path_1392" data-name="Path 1392" d="M444.324,362.7a8.821,8.821,0,0,1-1.229,5c-3.417,6.2-13.745,11.17-26.211,11.91-13.106.842-24.452-3.274-28.08-9.545a8.417,8.417,0,0,1-1.237-3.914c-.522-8.417,11.784-15.993,27.449-16.91S443.8,354.318,444.324,362.7Z" transform="translate(-66.625 -61.255)" fill="url(#linear-gradient-8)"/>
    <path id="Path_1393" data-name="Path 1393" d="M380.544,307.281a8.645,8.645,0,0,1-1.271,5.008c-3.417,6.2-13.737,11.17-26.178,11.9-13.106.842-24.452-3.274-28.08-9.545a8.283,8.283,0,0,1-1.229-3.906c-.53-8.417,11.784-15.925,27.44-16.91S380.014,298.9,380.544,307.281Z" transform="translate(-56.53 -52.483)" fill="url(#linear-gradient-9)"/>
    <path id="Path_1394" data-name="Path 1394" d="M212.968,264.872c-3.417,6.2-13.745,11.17-26.211,11.91-13.072.842-24.41-3.274-28.046-9.512,3.417-6.2,13.737-11.17,26.211-11.91C197.993,254.553,209.3,258.635,212.968,264.872Z" transform="translate(-30.405 -46.395)" fill="#a9006f"/>
    <path id="Path_1395" data-name="Path 1395" d="M316.679,241.307h0c-3.451,6.2-13.737,11.128-26.211,11.868-13.064.842-24.41-3.274-28.038-9.511,3.417-6.2,13.7-11.17,26.178-11.9C301.713,230.979,313.018,235.07,316.679,241.307Z" transform="translate(-46.822 -42.661)" fill="#a9006f"/>
    <path id="Path_1396" data-name="Path 1396" d="M291.528,288.441c-3.417,6.2-13.737,11.161-26.211,11.9-13.072.842-24.41-3.274-28.046-9.512,3.417-6.2,13.745-11.17,26.211-11.91C276.553,278.13,287.866,282.2,291.528,288.441Z" transform="translate(-42.84 -50.124)" fill="#a9006f"/>
    <path id="Path_1397" data-name="Path 1397" d="M404.659,266.842c-3.417,6.2-13.737,11.17-26.211,11.91-13.064.842-24.41-3.283-28.038-9.52,3.417-6.2,13.737-11.161,26.211-11.9C389.693,256.514,401,260.6,404.659,266.842Z" transform="translate(-60.747 -46.706)" fill="#a9006f"/>
    <path id="Path_1398" data-name="Path 1398" d="M474.221,311.034c-3.451,6.2-13.779,11.17-26.245,11.9-13.106.842-24.41-3.274-28.046-9.545,3.417-6.2,13.737-11.128,26.211-11.91C459.247,300.673,470.551,304.764,474.221,311.034Z" transform="translate(-71.75 -53.694)" fill="#a9006f"/>
    <path id="Path_1399" data-name="Path 1399" d="M443.291,369.376c-3.417,6.2-13.745,11.17-26.211,11.91-13.106.842-24.452-3.274-28.08-9.545,3.417-6.2,13.737-11.17,26.211-11.91C428.317,359.023,439.663,363.105,443.291,369.376Z" transform="translate(-66.855 -62.93)" fill="#a9006f"/>
    <path id="Path_1400" data-name="Path 1400" d="M379.508,313.972c-3.417,6.2-13.737,11.17-26.178,11.9-13.106.842-24.452-3.274-28.08-9.545,3.451-6.2,13.745-11.128,26.211-11.868C364.533,303.644,375.846,307.735,379.508,313.972Z" transform="translate(-56.765 -54.166)" fill="#a9006f"/>
    <path id="Path_1401" data-name="Path 1401" d="M212.968,264.872c-3.417,6.2-13.745,11.17-26.211,11.91-13.072.842-24.41-3.274-28.046-9.512,3.417-6.2,13.737-11.17,26.211-11.91C197.993,254.553,209.3,258.635,212.968,264.872Z" transform="translate(-30.405 -46.395)" fill="url(#linear-gradient-10)"/>
    <path id="Path_1402" data-name="Path 1402" d="M316.679,241.307h0c-3.451,6.2-13.737,11.128-26.211,11.868-13.064.842-24.41-3.274-28.038-9.511,3.417-6.2,13.7-11.17,26.178-11.9C301.713,230.979,313.018,235.07,316.679,241.307Z" transform="translate(-46.822 -42.661)" fill="url(#linear-gradient-11)"/>
    <path id="Path_1403" data-name="Path 1403" d="M291.528,288.441c-3.417,6.2-13.737,11.161-26.211,11.9-13.072.842-24.41-3.274-28.046-9.512,3.417-6.2,13.745-11.17,26.211-11.91C276.553,278.13,287.866,282.2,291.528,288.441Z" transform="translate(-42.84 -50.124)" fill="url(#linear-gradient-12)"/>
    <path id="Path_1404" data-name="Path 1404" d="M404.659,266.842c-3.417,6.2-13.737,11.17-26.211,11.91-13.064.842-24.41-3.283-28.038-9.52,3.417-6.2,13.737-11.161,26.211-11.9C389.693,256.514,401,260.6,404.659,266.842Z" transform="translate(-60.747 -46.706)" fill="url(#linear-gradient-13)"/>
    <path id="Path_1405" data-name="Path 1405" d="M474.221,311.034c-3.451,6.2-13.779,11.17-26.245,11.9-13.106.842-24.41-3.274-28.046-9.545,3.417-6.2,13.737-11.128,26.211-11.91C459.247,300.673,470.551,304.764,474.221,311.034Z" transform="translate(-71.75 -53.694)" fill="url(#linear-gradient-14)"/>
    <path id="Path_1406" data-name="Path 1406" d="M443.291,369.376c-3.417,6.2-13.745,11.17-26.211,11.91-13.106.842-24.452-3.274-28.08-9.545,3.417-6.2,13.737-11.17,26.211-11.91C428.317,359.023,439.663,363.105,443.291,369.376Z" transform="translate(-66.855 -62.93)" fill="url(#linear-gradient-15)"/>
    <path id="Path_1407" data-name="Path 1407" d="M379.508,313.972c-3.417,6.2-13.737,11.17-26.178,11.9-13.106.842-24.452-3.274-28.08-9.545,3.451-6.2,13.745-11.128,26.211-11.868C364.533,303.644,375.846,307.735,379.508,313.972Z" transform="translate(-56.765 -54.166)" fill="url(#linear-gradient-16)"/>
    <path id="Path_1408" data-name="Path 1408" d="M519.512,144.321s-4.781-3.417-5.623-4.621,2.138-4.84,1.263-5.631-4.116-2.449-3.8-4.032,5.707,2.054,8.156,3.872,4.672,6.658,4.672,6.658S523.552,145.23,519.512,144.321Z" transform="translate(-86.217 -26.514)" fill="#c58067"/>
    <path id="Path_1409" data-name="Path 1409" d="M469.122,148.482,571.534,72.668l36-27.129s1.734-5.623-3.459-5.193S425.285,157.135,425.285,157.135L412.6,168.077l13.266,14.991Z" transform="translate(-70.59 -12.376)" fill="#a9006f"/>
    <path id="Path_1410" data-name="Path 1410" d="M469.122,148.482,571.534,72.668l36-27.129s1.734-5.623-3.459-5.193S425.285,157.135,425.285,157.135L412.6,168.077l13.266,14.991Z" transform="translate(-70.59 -12.376)" fill="url(#linear-gradient-17)"/>
    <path id="Path_1411" data-name="Path 1411" d="M574.147,121.42s9.259-2.82,10.219-1.885-7.3,59.459-7.719,61.959-14.183,1.683-20.025,0a64.479,64.479,0,0,1-11.262-4.587s6.734-53.466,7.971-54.3,10.32-1.566,10.32-1.566Z" transform="translate(-91.603 -24.883)" fill="#a9006f"/>
    <path id="Path_1412" data-name="Path 1412" d="M553.712,122.57a8.914,8.914,0,0,0-3.754,2.525c-1.246,1.683-11.262,21.7-10.008,25.866s5.572,7.222,6.826,6.389,3.6-8.476,4.015-10.143,1.229-7.163,1.229-7.163Z" transform="translate(-90.729 -25.393)" fill="#a9006f"/>
    <path id="Path_1413" data-name="Path 1413" d="M537.957,290.173s-1.768,6.65-2.593,7.138-3.712-1.044-5.387-2.256-1.077-3.8-1.077-3.8l.732-2.029Z" transform="translate(-88.981 -51.772)" fill="#c58067"/>
    <path id="Path_1414" data-name="Path 1414" d="M591.012,286.53s3.224,9.057,2.9,9.958-4.209-.412-6.313-.278-2.853-3.064-2.853-3.064L584,291.134Z" transform="translate(-97.718 -51.344)" fill="#c58067"/>
    <path id="Path_1415" data-name="Path 1415" d="M578.266,115.722s-1.254,5.421-.842,7.508-2.921,7.929-7.1,7.929-4.209-7.1-4.209-7.929,1.254-1.246.842-3.367S577.845,113.222,578.266,115.722Z" transform="translate(-94.888 -24.193)" fill="#c58067"/>
    <path id="Path_1416" data-name="Path 1416" d="M567.043,119.9a3.232,3.232,0,0,1-.673,2.8,5.211,5.211,0,0,0,3.434,1.524c2.525,0,6.254-2.087,7.929-5.842l.084-.21c.236-1.372.488-2.449.488-2.449C577.885,113.223,566.622,117.811,567.043,119.9Z" transform="translate(-94.928 -24.195)" fill="#b6765e"/>
    <path id="Path_1417" data-name="Path 1417" d="M578.262,123.509s-3.367,7.87-6.229,8.7c0,0-.783.421,1.3,1.683s7.929-5.05,7.1-9.6a3.451,3.451,0,0,0-2.079-2.66Z" transform="translate(-95.801 -25.246)" fill="#fff"/>
    <path id="Path_1418" data-name="Path 1418" d="M566.662,121.776s-.926,5.791,1.414,9.781c0,0-1,1.481-1.835,1.481s-2.921-5.008-2.087-8.762C564.642,122.088,566.241,121.179,566.662,121.776Z" transform="translate(-94.547 -25.239)" fill="#fff"/>
    <path id="Path_1419" data-name="Path 1419" d="M573.906,192.324l-4.562,36.3,14.217,46.926s-2.609,1.448-8.03,1.027l-19.267-46.4-.269-29.46-6.262,25.445-11.995,49.62s-6.1,1.338-9.7-1.246l7.929-48.374,6.675-38.383Z" transform="translate(-88.861 -35.713)" fill="#606161"/>
    <path id="Path_1420" data-name="Path 1420" d="M564.12,100.457s-.842,10.841,0,13.762,3.367,5.429,5.842,5.429,6.262-2.087,7.929-5.842,2.525-12.937,2.087-14.191-2.938-5.193-9.6-4.587C565.786,95.449,564.12,98.782,564.12,100.457Z" transform="translate(-94.513 -21.024)" fill="#c58067"/>
    <path id="Path_1421" data-name="Path 1421" d="M579.577,105.259a1.54,1.54,0,0,1-2.382.244,3.081,3.081,0,0,1-.682-2.618c.118-.934.429-1.835.488-2.769a.791.791,0,0,0-.143-.606.774.774,0,0,0-.606-.168c-1.263,0-2.744.53-3.619-.37-.53-.53-.682-1.465-1.389-1.683-.581-.21-1.2.185-1.742.471a5.816,5.816,0,0,1-4.251.4,1.153,1.153,0,0,1-.749-.48,1.2,1.2,0,0,1-.076-.69,5.244,5.244,0,0,1,2.281-3.729,8.99,8.99,0,0,1,3.485-1.2,35.148,35.148,0,0,1,4.284-.5,4.47,4.47,0,0,1,2.264.286,8.1,8.1,0,0,1,1.784,1.574,15.556,15.556,0,0,1,2.525,2.222c.505.749,1.608.732,1.995,2.525.328,1.608.547,3.232.842,4.848s-.4,3.283-.732,4.89c-.7,3.291-.7,3.291-1.894,4.419a10.1,10.1,0,0,1-2.382,1.524,1.372,1.372,0,0,1-1.027.21c-.337-.118-.471-.69-.135-.842" transform="translate(-94.617 -20.481)" fill="#606161"/>
    <path id="Path_1422" data-name="Path 1422" d="M580.682,109.491s.421-2.525,2.087-1.683-.412,5.421-1.254,5.842a2.432,2.432,0,0,1-1.246.354" transform="translate(-97.128 -23.03)" fill="#c58067"/>
    <path id="Path_1423" data-name="Path 1423" d="M544.586,156.665l-20.243-17.1s-4.714.547-4.932,6.153c0,0,9.3,11.658,18.829,17.525C542.355,165.781,545.588,157.608,544.586,156.665Z" transform="translate(-87.495 -28.084)" fill="#a9006f"/>
    <path id="Path_1424" data-name="Path 1424" d="M541.6,152.2l3.712-24.132-4.781,26.077Z" transform="translate(-85.552 -20.271)" fill="url(#linear-gradient-18)"/>
    <path id="Path_1425" data-name="Path 1425" d="M518.515,294.834a7.07,7.07,0,0,0-2.862,1.465,2.365,2.365,0,0,0-.463,2.946,3.367,3.367,0,0,0,2.6.968,84.307,84.307,0,0,0,14.722-.286,1.221,1.221,0,0,0,.547-.16c.244-.177,1.086-.69,1.128-.993l.64-4.806a17.8,17.8,0,0,1-5.32.48c-1.944-.345-2.71-2.256-4.587-1.885C522.782,292.99,520.594,294.144,518.515,294.834Z" transform="translate(-86.777 -52.291)" fill="#a9006f"/>
    <path id="Path_1426" data-name="Path 1426" d="M576.454,296.64a7.071,7.071,0,0,0-2.862,1.465,2.348,2.348,0,0,0-.463,2.938,3.367,3.367,0,0,0,2.6.976,84.307,84.307,0,0,0,14.722-.286,1.221,1.221,0,0,0,.547-.16c.244-.177,1.953-1.035,1.986-1.338.219-1.6-1.077-3.948-1.237-5.05-1.5.286-2.794,1.364-4.3,1.1-1.944-.345-2.71-2.264-4.587-1.885C580.722,294.8,578.533,295.949,576.454,296.64Z" transform="translate(-95.947 -52.582)" fill="#a9006f"/>
    <path id="Path_1427" data-name="Path 1427" d="M599.642,83.35a10.832,10.832,0,0,0,0-5.631,13.466,13.466,0,0,0-2.837-5.143,6.734,6.734,0,0,0-4.049-.059c-1.827.715.749,3.99.513,5.547s-1.734-2.786-2.618-2.407,1.372,6.363,3.055,7.113" transform="translate(-98.74 -17.426)" fill="#c58067"/>
    <path id="Path_1428" data-name="Path 1428" d="M580.264,135.371s6.254-1.633,8.291-5.48,12.87-21.557,12.55-25.681c-.37-4.764-2.677-20.412-2.677-20.412s-.253-1.279-3.274-.892-3.493,2.121-3.493,2.121l-.269,18.375-9.208,16.9S578.421,131.928,580.264,135.371Z" transform="translate(-97.047 -19.104)" fill="#a9006f"/>
    <path id="Path_1429" data-name="Path 1429" d="M419.082,183.45c-2.677.118-4.209,3.047-6.38,4.6-1.566,1.12-3.527,1.524-5.236,2.424s-3.274,2.651-2.887,4.537a5.816,5.816,0,0,0,1.38,2.416l9.907,12.138c.6.741,1.431,1.557,2.348,1.3a2.525,2.525,0,0,0,.842-.513l11.279-9.1c1.111-.892,2.34-2.045,2.18-3.459a4.276,4.276,0,0,0-1.271-2.239C428.231,192.145,424.359,183.45,419.082,183.45Z" transform="translate(-69.311 -35.029)" fill="#a9006f"/>
    <path id="Path_1430" data-name="Path 1430" d="M419.082,183.45c-2.677.118-4.209,3.047-6.38,4.6-1.566,1.12-3.527,1.524-5.236,2.424s-3.274,2.651-2.887,4.537a5.816,5.816,0,0,0,1.38,2.416l9.907,12.138c.6.741,1.431,1.557,2.348,1.3a2.525,2.525,0,0,0,.842-.513l11.279-9.1c1.111-.892,2.34-2.045,2.18-3.459a4.276,4.276,0,0,0-1.271-2.239C428.231,192.145,424.359,183.45,419.082,183.45Z" transform="translate(-69.311 -35.029)" fill="url(#linear-gradient-19)"/>
    <path id="Path_1431" data-name="Path 1431" d="M390.021,200.916c-2.567,3.039-4.343,6.658-6.363,10.1a32.019,32.019,0,0,1-7.576,9.259,14.534,14.534,0,0,1-11.262,3.165l1.978,3.6a81.083,81.083,0,0,0,29.873-2.441c4.276-1.17,8.611-2.795,11.734-5.892s4.739-8.165,2.82-12.155-6.624-5.968-9.554-9.259c-1.784-2.012-2.306-2.281-5.05-1.212a16.633,16.633,0,0,0-6.6,4.832Z" transform="translate(-63.028 -36.931)" fill="#fff"/>
    <path id="Path_1432" data-name="Path 1432" d="M381.087,220.818a1.094,1.094,0,0,0-.3-.842c-.455-.354-1.061.118-1.481.5-2.525,2.281-6.178,2.416-9.528,2.736s-7.155,1.271-8.687,4.268a10.363,10.363,0,0,0-.791,5.219,22.984,22.984,0,0,0,1.162,8.628c.345.842,1.153,1.827,2.012,1.465a1.827,1.827,0,0,0,.842-1.246c.505-1.591.842-3.316,1.944-4.571,1.683-1.911,4.562-2.062,7.1-2.382a31.641,31.641,0,0,0,11.936-3.956c.926-.539,1.961-1.414,1.683-2.458s-1.835-1.33-2.938-.976-2.155,1.069-3.274.842c.051-1.136-.286-2.264-.2-3.367C380.624,223.343,381.18,222.165,381.087,220.818Z" transform="translate(-62.309 -40.791)" fill="#a9006f"/>
    <path id="Path_1433" data-name="Path 1433" d="M381.087,220.818a1.094,1.094,0,0,0-.3-.842c-.455-.354-1.061.118-1.481.5-2.525,2.281-6.178,2.416-9.528,2.736s-7.155,1.271-8.687,4.268a10.363,10.363,0,0,0-.791,5.219,22.984,22.984,0,0,0,1.162,8.628c.345.842,1.153,1.827,2.012,1.465a1.827,1.827,0,0,0,.842-1.246c.505-1.591.842-3.316,1.944-4.571,1.683-1.911,4.562-2.062,7.1-2.382a31.641,31.641,0,0,0,11.936-3.956c.926-.539,1.961-1.414,1.683-2.458s-1.835-1.33-2.938-.976-2.155,1.069-3.274.842c.051-1.136-.286-2.264-.2-3.367C380.624,223.343,381.18,222.165,381.087,220.818Z" transform="translate(-62.309 -40.791)" fill="url(#linear-gradient-20)"/>
    <path id="Path_1434" data-name="Path 1434" d="M365.879,229.554a12.315,12.315,0,0,1,4.209-2.626,27.566,27.566,0,0,1,7.5-1.885,4.882,4.882,0,0,0,2.205-.547,1.366,1.366,0,0,0-1.044-2.525,7.089,7.089,0,0,0-1.683.842c-2.332,1.254-5.092,1.322-7.71,1.683s-5.429,1.364-6.734,3.661a10.685,10.685,0,0,0-.926,5.177,23.738,23.738,0,0,0,.741,7.07c.109.345.337.758.7.724a.757.757,0,0,0,.463-.328c1.532-1.911.093-3.653.093-5.741A7.988,7.988,0,0,1,365.879,229.554Z" transform="translate(-62.529 -41.11)" fill="url(#linear-gradient-21)"/>
    <path id="Path_1435" data-name="Path 1435" d="M366.107,249.765c-1.338.589-1.683,2.289-1.835,3.737a33.271,33.271,0,0,0-.042,6.911,3.678,3.678,0,0,0,1.17,2.668,2.424,2.424,0,0,0,2.424.118,4.132,4.132,0,0,0,1.759-1.8c1.448-2.626.295-4.672-.076-7.331C369.28,252.5,368.54,248.7,366.107,249.765Z" transform="translate(-62.909 -45.496)" fill="url(#linear-gradient-22)"/>
    <path id="Path_1436" data-name="Path 1436" d="M360.575,250.37a2.433,2.433,0,0,0-1.641,1.414,2.012,2.012,0,0,0-.244,1.54,1.439,1.439,0,0,0,1.751.842,1.894,1.894,0,0,0,1.212-1.6,2.837,2.837,0,0,0-.606-1.986" transform="translate(-62.048 -45.621)" fill="url(#linear-gradient-23)"/>
    <path id="Path_1437" data-name="Path 1437" d="M230.77,158.328s3.459,3.51,5.05,3.7,13.468-3.434,14.461-4.3,1.81-6.22,1.81-6.22Z" transform="translate(-41.811 -29.974)" fill="#a9006f"/>
    <path id="Path_1438" data-name="Path 1438" d="M230.77,158.328s3.459,3.51,5.05,3.7,13.468-3.434,14.461-4.3,1.81-6.22,1.81-6.22Z" transform="translate(-41.811 -29.974)" fill="url(#linear-gradient-24)"/>
    <path id="Path_1439" data-name="Path 1439" d="M243.641,112.811a1.8,1.8,0,0,0,.177.741c1.894,3.535-14.242,28.619-27.937,10.235a36.336,36.336,0,0,1-3.106-5.05s-31.363-33.669-23.408-54.99c7.912-21.2,38.248-28.366,54.586-7.576C256.057,71.525,243.1,106.347,243.641,112.811Z" transform="translate(-35.053 -12.916)" fill="#a9006f"/>
    <path id="Path_1440" data-name="Path 1440" d="M243.641,112.811a1.8,1.8,0,0,0,.177.741c1.894,3.535-14.242,28.619-27.937,10.235a36.336,36.336,0,0,1-3.106-5.05s-31.363-33.669-23.408-54.99c7.912-21.2,38.248-28.366,54.586-7.576C256.057,71.525,243.1,106.347,243.641,112.811Z" transform="translate(-35.053 -12.916)" fill="url(#linear-gradient-25)"/>
    <path id="Path_1441" data-name="Path 1441" d="M249.047,126.512c1.894,3.535-14.242,28.619-27.937,10.235a32.171,32.171,0,0,1,27.777-10.942,1.8,1.8,0,0,0,.16.707Z" transform="translate(-40.282 -25.876)" fill="url(#linear-gradient-26)"/>
    <path id="Path_1442" data-name="Path 1442" d="M224.462,144.34a1.835,1.835,0,0,1,.48.884,2.054,2.054,0,0,1-.219.934,4.209,4.209,0,0,0,1.338,4.638c-1.431.842-1.077,3.249.261,4.251s3.156,1.01,4.823.842a46.228,46.228,0,0,0,18.8-5.581c2.214-1.229,4.562-3.022,4.68-5.555a5.37,5.37,0,0,0-2.113-1.162c.463-1.01.842-2.441-.109-3.047-.311-.194-.7-.236-1.018-.421a2.3,2.3,0,0,1-.842-2.348,7.349,7.349,0,0,0,.135-2.635,2.416,2.416,0,0,0-2.618-1.683c-4.958,3.99-10.547,8.2-16.893,7.828C228.241,141.091,219.807,138.347,224.462,144.34Z" transform="translate(-40.595 -27.113)" fill="#a9006f"/>
    <path id="Path_1443" data-name="Path 1443" d="M224.462,144.34a1.835,1.835,0,0,1,.48.884,2.054,2.054,0,0,1-.219.934,4.209,4.209,0,0,0,1.338,4.638c-1.431.842-1.077,3.249.261,4.251s3.156,1.01,4.823.842a46.228,46.228,0,0,0,18.8-5.581c2.214-1.229,4.562-3.022,4.68-5.555a5.37,5.37,0,0,0-2.113-1.162c.463-1.01.842-2.441-.109-3.047-.311-.194-.7-.236-1.018-.421a2.3,2.3,0,0,1-.842-2.348,7.349,7.349,0,0,0,.135-2.635,2.416,2.416,0,0,0-2.618-1.683c-4.958,3.99-10.547,8.2-16.893,7.828C228.241,141.091,219.807,138.347,224.462,144.34Z" transform="translate(-40.595 -27.113)" fill="url(#linear-gradient-27)"/>
    <path id="Path_1444" data-name="Path 1444" d="M242.419,131.836l-2.071.118-.606-10.353c-1.136-19.553-3.2-23.509-4.326-24.132a.482.482,0,0,0-.463,0,2.693,2.693,0,0,0-.884.842,10.858,10.858,0,0,1,2.163,2.525c1.128,1.86,1.288,3.6.446,4.781a2.18,2.18,0,0,1-2.3,1.052c-1.616-.4-2.635-2.727-2.9-4.722a7.98,7.98,0,0,1,.1-2.887,3.5,3.5,0,0,0-2.155-.547c-.968.109-1.683,1-2.113,2.584a14.592,14.592,0,0,0-.4,1.885c2.424,1.162,4.571,4.007,4.209,5.892a1.944,1.944,0,0,1-1.507,1.683,3.19,3.19,0,0,1-3.081-.951,6.82,6.82,0,0,1-1.827-5.1c-.682,0-1.465.4-2.02,2.029-1.683,4.8,7.685,21.136,11.422,27.019l-1.751,1.111c-1.431-2.247-13.905-22.2-11.633-28.8,1.01-2.946,2.845-3.476,4.158-3.417a17.682,17.682,0,0,1,.421-1.911c.842-3.055,2.525-3.914,3.821-4.082a5.454,5.454,0,0,1,3.257.7,4.772,4.772,0,0,1,1.582-1.456,2.475,2.475,0,0,1,2.475-.051c1.877,1.027,4.209,4.89,5.4,25.833Zm-15.614-26.506a4.352,4.352,0,0,0,1.145,2.795,1.271,1.271,0,0,0,1.035.463h0C229.154,107.889,228.161,106.307,226.805,105.331Zm6.641-4.722a5.785,5.785,0,0,0,.051,1.044,4.446,4.446,0,0,0,1.33,3s.067-.076.168-.21c.32-.446.109-1.423-.539-2.525a8.729,8.729,0,0,0-1.01-1.3Z" transform="translate(-40.178 -21.083)" fill="#fff"/>
  </g>
</svg>
