<svg xmlns="http://www.w3.org/2000/svg" xmlns:xlink="http://www.w3.org/1999/xlink" width="350.282" height="295.831" viewBox="0 0 350.282 295.831">
  <defs>
    <linearGradient id="linear-gradient" x1="0.704" y1="-3.297" x2="0.412" y2="2.143" gradientUnits="objectBoundingBox">
      <stop offset="0.02" stop-color="#fff" stop-opacity="0"/>
      <stop offset="0.14" stop-color="#fff" stop-opacity="0.059"/>
      <stop offset="0.32" stop-color="#fff" stop-opacity="0.388"/>
      <stop offset="0.68" stop-color="#fff" stop-opacity="0.678"/>
      <stop offset="1" stop-color="#fff"/>
    </linearGradient>
    <linearGradient id="linear-gradient-2" x1="0.78" y1="-4.706" x2="0.487" y2="0.734" gradientUnits="objectBoundingBox">
      <stop offset="0.02" stop-color="#fff" stop-opacity="0"/>
      <stop offset="0.32" stop-color="#fff" stop-opacity="0.388"/>
      <stop offset="0.68" stop-color="#fff" stop-opacity="0.678"/>
      <stop offset="1" stop-color="#fff"/>
    </linearGradient>
    <linearGradient id="linear-gradient-3" x1="0.705" y1="-3.321" x2="0.413" y2="2.119" xlink:href="#linear-gradient-2"/>
    <linearGradient id="linear-gradient-4" x1="0.703" y1="-3.273" x2="0.41" y2="2.167" xlink:href="#linear-gradient-2"/>
    <linearGradient id="linear-gradient-5" x1="-0.203" y1="-0.563" x2="1.49" y2="1.998" xlink:href="#linear-gradient-2"/>
    <linearGradient id="linear-gradient-6" x1="3.317" y1="0.092" x2="-5.004" y2="1.299" gradientUnits="objectBoundingBox">
      <stop offset="0" stop-opacity="0"/>
      <stop offset="0.99"/>
    </linearGradient>
  </defs>
  <g id="data_analytics_" transform="translate(-0.04)">
    <path id="Path_1375" data-name="Path 1375" d="M353.458,216.341c-6.192,11.666-17.4,20.776-20.506,33.618-1.345,5.541-1.032,11.353-1.692,17.02-2.436,19.863-17.325,36.418-35.081,45.8-.744.406-1.5.778-2.25,1.15-11.649,5.693-24.27,8.8-37.137,10.735-7.825,1.167-15.743,1.895-23.593,2.538a978.506,978.506,0,0,1-98.13,2.825c-15.828-.321-31.968-1.074-46.857-6.328-.761-.262-1.514-.541-2.267-.846-12.08-4.7-22.8-12.385-32.29-21.2l-.431-.406A139.591,139.591,0,0,1,19.791,254.2a122.815,122.815,0,0,1-5.38-80.551c4.475-15.862,12.292-30.987,13.535-47.373.905-12.351-2-24.854-.059-37.086,3.832-24.279,26.4-42.154,50.232-48.168s48.913-2.589,73.251.846c11.894,1.692,25.81,6.235,37.577,2.6,14.44-4.475,26.622-10.008,42.2-10.041,6.37,0,12.867.668,18.7,3.223,7.072,3.088,12.689,8.688,18.416,13.84,16.031,14.381,34.3,26,50.689,39.963s31.224,30.945,37.222,51.6c2.952,10.1,3.68,20.717,3.993,31.232C360.631,188.645,360.166,203.66,353.458,216.341Z" transform="translate(-9.98 -34.42)" fill="#a9006f" opacity="0.18" style="isolation: isolate"/>
    <rect id="Rectangle_34" data-name="Rectangle 34" width="191.971" height="136.722" rx="15.27" transform="translate(81.496 95.677)" fill="#a9006f"/>
    <rect id="Rectangle_35" data-name="Rectangle 35" width="168.538" height="114.406" transform="translate(93.213 105.439)" fill="#fff"/>
    <rect id="Rectangle_36" data-name="Rectangle 36" width="5.025" height="45.943" transform="translate(170.507 158.683)" fill="#a9006f"/>
    <rect id="Rectangle_37" data-name="Rectangle 37" width="5.025" height="38.431" transform="translate(179.245 166.195)" fill="#a9006f"/>
    <rect id="Rectangle_38" data-name="Rectangle 38" width="5.025" height="31.571" transform="translate(187.806 173.055)" fill="#a9006f"/>
    <rect id="Rectangle_39" data-name="Rectangle 39" width="5.025" height="38.431" transform="translate(196.545 166.195)" fill="#a9006f"/>
    <rect id="Rectangle_40" data-name="Rectangle 40" width="5.025" height="22.976" transform="translate(205.106 181.65)" fill="#a9006f"/>
    <rect id="Rectangle_41" data-name="Rectangle 41" width="5.025" height="38.431" transform="translate(213.845 166.195)" fill="#a9006f"/>
    <rect id="Rectangle_42" data-name="Rectangle 42" width="5.025" height="26.893" transform="translate(222.406 177.733)" fill="#a9006f"/>
    <rect id="Rectangle_43" data-name="Rectangle 43" width="5.025" height="32.07" transform="translate(231.144 172.556)" fill="#a9006f"/>
    <rect id="Rectangle_44" data-name="Rectangle 44" width="28.737" height="1.675" transform="translate(111.629 186.641)" fill="#a9006f"/>
    <rect id="Rectangle_45" data-name="Rectangle 45" width="28.737" height="1.675" transform="translate(111.629 191.286)" fill="#a9006f"/>
    <rect id="Rectangle_46" data-name="Rectangle 46" width="28.737" height="1.675" transform="translate(111.629 195.938)" fill="#a9006f"/>
    <rect id="Rectangle_47" data-name="Rectangle 47" width="28.737" height="1.675" transform="translate(111.629 200.591)" fill="#a9006f"/>
    <rect id="Rectangle_48" data-name="Rectangle 48" width="28.737" height="1.675" transform="translate(111.629 205.244)" fill="#a9006f"/>
    <rect id="Rectangle_49" data-name="Rectangle 49" width="28.737" height="20.65" transform="translate(150.695 186.641)" fill="none"/>
    <path id="Path_1376" data-name="Path 1376" d="M173.185,185.5a18.7,18.7,0,1,0-.11,37.391v-6.514H173a12.368,12.368,0,1,1,12.368-12.368,11.157,11.157,0,0,1-.135,1.768H191.8a14.139,14.139,0,0,0,.076-1.582A18.687,18.687,0,0,0,173.185,185.5Z" transform="translate(-32.228 -57.694)" fill="#a9006f"/>
    <rect id="Rectangle_50" data-name="Rectangle 50" width="59.529" height="58.413" rx="7.47" transform="translate(264.305 112.393)" fill="url(#linear-gradient)"/>
    <rect id="Rectangle_51" data-name="Rectangle 51" width="59.529" height="58.413" rx="7.47" transform="translate(187.679 27.967)" fill="url(#linear-gradient-2)"/>
    <rect id="Rectangle_52" data-name="Rectangle 52" width="59.529" height="58.413" rx="7.47" transform="translate(42.244 21.453)" fill="url(#linear-gradient-3)"/>
    <rect id="Rectangle_53" data-name="Rectangle 53" width="59.529" height="58.413" rx="7.47" transform="translate(24.928 109.026)" fill="url(#linear-gradient-4)"/>
    <path id="Path_1377" data-name="Path 1377" d="M276.97,202.5l-.66-.169,11.082-42.585h19.981v.685H287.925Z" transform="translate(-42.56 -24.61)" fill="#a9006f"/>
    <path id="Path_1378" data-name="Path 1378" d="M215.6,82.155h-9.2l-24.93,83.859-.584-.059L205.879,81.47h9.72Z" transform="translate(-27.861 -12.551)" fill="#a9006f"/>
    <path id="Path_1379" data-name="Path 1379" d="M157.868,145.5,135.907,76.605H118.76V75.92h17.646l.076.245,22.037,69.122Z" transform="translate(-18.289 -11.696)" fill="#a9006f"/>
    <path id="Path_1380" data-name="Path 1380" d="M129.428,185.725l-15.616-17.41H98.5v-.685h15.616l15.828,17.638Z" transform="translate(-15.168 -25.824)" fill="#a9006f"/>
    <path id="Path_1381" data-name="Path 1381" d="M195.2,209.74a18.67,18.67,0,0,1-18.611,17.114h-.11v-6.505a12.359,12.359,0,0,0,12.156-10.608Z" transform="translate(-35.624 -61.429)" fill="#a9006f"/>
    <path id="Path_1382" data-name="Path 1382" d="M195.2,209.47a18.67,18.67,0,0,1-18.611,17.114h-.11V220.07a12.351,12.351,0,0,0,12.156-10.6Z" transform="translate(-35.624 -61.387)" fill="url(#linear-gradient-5)"/>
    <path id="Path_1383" data-name="Path 1383" d="M111.93,194.771l8.7-18.281,20.108,11.75L126.9,216.791l-10.794-6.006Z" transform="translate(-17.237 -27.189)" fill="#a9006f"/>
    <path id="Path_1384" data-name="Path 1384" d="M113.88,193.357,121.2,179.17l16.538,9.661L125.2,213.989l-8.527-6.531Z" transform="translate(-17.537 -27.602)" fill="#fff"/>
    <path id="Path_1385" data-name="Path 1385" d="M118.928,283.01l5.778,35.75-5.778,35.707L122.185,357l-5.346-.228.465-36.909-9.982-26,1.21,26.994-5.82,34.8,2.538,1.387-5.8-.228,2.487-36.088-4.526-21.58s-3.993-15.684,0-18.239S118.928,283.01,118.928,283.01Z" transform="translate(-23.169 -72.276)" fill="#3e3e54"/>
    <path id="Path_1386" data-name="Path 1386" d="M97.328,220.14s14.051,1.573,17.528,4.111,7.081,6.565,7.081,9.813,1.4,19.262,1.4,19.262l5.8-13.459,3.248,1.853s-3.714,23.331-5.8,24.025-7.774-.846-7.774-.846l-.355,8.823s-19.034,1.853-21.58-2.089S88.31,226.586,97.328,220.14Z" transform="translate(-22.692 -63.031)" fill="#a9006f"/>
    <path id="Path_1387" data-name="Path 1387" d="M111.335,214.386s-1.692,3.578-.787,6.505c0,0-5.219-.711-5.372-1.328s.651-6.091.051-7.774S111.335,214.386,111.335,214.386Z" transform="translate(-24.636 -61.684)" fill="#eea886"/>
    <path id="Path_1388" data-name="Path 1388" d="M105.022,197.6c2.056-.846,7.681-2.115,9.762,6.285s-1.083,8.806-4.357,8.84-8.789-5.287-9.305-7S99.177,200.119,105.022,197.6Z" transform="translate(-23.932 -59.464)" fill="#eea886"/>
    <path id="Path_1389" data-name="Path 1389" d="M136.133,237.982a2.284,2.284,0,0,1,.085-.677c.195-.618.846-.956,1.2-1.506a3.087,3.087,0,0,0,.338-1.134,2.749,2.749,0,0,1,.279-1.007.905.905,0,0,1,.846-.5c.474.068.719.592.846,1.049a12.994,12.994,0,0,1-.338,8.459c-.152.4-.431.846-.846.846a1.015,1.015,0,0,1-.406-.144c-.846-.457-2.047-.846-2.089-1.836C136.006,240.325,136.107,239.141,136.133,237.982Z" transform="translate(-29.393 -65.036)" fill="#eea886"/>
    <path id="Path_1390" data-name="Path 1390" d="M137.689,234.7l-3.942-3.7-.347.694,3.612,3.79S137.748,235.23,137.689,234.7Z" transform="translate(-28.987 -64.704)" fill="#a9006f"/>
    <path id="Path_1391" data-name="Path 1391" d="M122.807,269.68s-2.039-.846-2.732-6.768S118.51,250.9,118.51,250.9v27.832h4.644Z" transform="translate(-26.693 -67.769)" fill="url(#linear-gradient-6)"/>
    <path id="Path_1392" data-name="Path 1392" d="M110.65,194.96a4.077,4.077,0,0,0-1.912-2.149,2.216,2.216,0,0,0-2.149-.118,2.183,2.183,0,0,0-1.768-.888,2.9,2.9,0,0,0-1.692.262,1.4,1.4,0,0,0-.719,1.489,8.917,8.917,0,0,0-2.538,0,1.878,1.878,0,0,0-.744.237,1.827,1.827,0,0,0-.592.846,8.654,8.654,0,0,0-.719,3.384,3.578,3.578,0,0,0-1.5,2.724,3.629,3.629,0,0,0,1.227,2.868A4.111,4.111,0,0,0,98,206.921a2.834,2.834,0,0,0,2.986,1.218c0,.508.068,1.125.533,1.354a1.168,1.168,0,0,0,.516.085,3.891,3.891,0,0,0,1.447-.3,2.673,2.673,0,0,0,0,1.184.914.914,0,0,0,.846.694,1.353,1.353,0,0,0,.744-.431,3.849,3.849,0,0,0,1.235-1.641,16.446,16.446,0,0,0,.152-1.836c.135-.719.592-1.421.406-2.123s-.77-1.015-1.218-1.48-.719-1.294-.228-1.692,1.21-.042,1.65.4c.22.211.533.457.787.3s.178-.5.085-.753a10.623,10.623,0,0,1-.584-1.692,1.768,1.768,0,0,1,.474-1.692c.728-.618,1.9-.271,2.614-.846S110.921,195.7,110.65,194.96Z" transform="translate(-23.274 -58.661)" fill="#3e3e54"/>
  </g>
</svg>
