<svg id="Resume" xmlns="http://www.w3.org/2000/svg" width="102" height="102" viewBox="0 0 102 102">
  <g id="Artboard" transform="translate(-227 -148)">
    <g id="Group" transform="translate(227 148)">
      <circle id="Oval" cx="51" cy="51" r="51" fill="#fff" opacity="0"/>
      <path id="H" d="M54.088,77.152a9.9,9.9,0,0,0,4.464-1.116A23.829,23.829,0,0,0,62.98,73.12a38.988,38.988,0,0,0,4.212-4.032q2.016-2.232,3.708-4.464t2.988-4.212q1.3-1.98,2.016-3.276h0l-.648-.288q-1.872,3.1-4.392,6.48a61.419,61.419,0,0,1-5.256,6.192,34.779,34.779,0,0,1-5.472,4.644A9.237,9.237,0,0,1,55.1,76a1.961,1.961,0,0,1-1.836-1.3,6.834,6.834,0,0,1-.612-2.952A27.406,27.406,0,0,1,54.34,62.9,62.8,62.8,0,0,1,58.8,53,93.539,93.539,0,0,1,65.068,43.2a79.023,79.023,0,0,1,7.092-8.5,44.257,44.257,0,0,1,6.984-5.976,11.118,11.118,0,0,1,5.9-2.268,2.414,2.414,0,0,1,1.728.612,7.907,7.907,0,0,1,1.152,1.368,16.4,16.4,0,0,0,1.044,1.4,1.741,1.741,0,0,0,1.4.648,2.181,2.181,0,0,0,1.656-.684,2.366,2.366,0,0,0,.648-1.692,2.862,2.862,0,0,0-1.3-2.484,4.825,4.825,0,0,0-2.808-.9A17.588,17.588,0,0,0,82.168,26a34.145,34.145,0,0,0-6.408,3.348,49.149,49.149,0,0,0-6.12,4.788,77.429,77.429,0,0,0-5.58,5.652q-2.628,2.952-4.824,5.868t-3.852,5.364H45.016Q52.5,38.272,58.8,32.08T70.72,25.888a20.079,20.079,0,0,0,2.808-.144.951.951,0,0,0,.936-1.008.56.56,0,0,0-.36-.576,1.926,1.926,0,0,0-.72-.144,6.931,6.931,0,0,0-2.52.5,9,9,0,0,1-3.24.5q-5.544,0-11.3.4T45.2,26.716a78.107,78.107,0,0,0-10.044,2.34,37.221,37.221,0,0,0-8.172,3.528,18.038,18.038,0,0,0-5.508,4.9,10.6,10.6,0,0,0-2.016,6.336,7,7,0,0,0,2.484,5.4,10.031,10.031,0,0,0,6.948,2.232,13.636,13.636,0,0,0,4.392-.756,14.087,14.087,0,0,0,4.068-2.16,11.872,11.872,0,0,0,2.988-3.312,8.126,8.126,0,0,0,1.152-4.284A6.356,6.356,0,0,0,40.7,37.7h0l-.864.072a9.01,9.01,0,0,1,.576,1.44,6.68,6.68,0,0,1,.216,1.872,7.239,7.239,0,0,1-1.08,3.852,10.961,10.961,0,0,1-2.736,3.024A12.947,12.947,0,0,1,33.172,49.9a11.764,11.764,0,0,1-3.852.684,6.212,6.212,0,0,1-2.664-.54A5.352,5.352,0,0,1,23.7,46.768a6.8,6.8,0,0,1-.36-2.16,11.052,11.052,0,0,1,3.168-7.632,25.374,25.374,0,0,1,8.928-5.9,62.093,62.093,0,0,1,13.824-3.816,107.641,107.641,0,0,1,17.928-1.368h0v.144a27,27,0,0,0-9.036,3.744A37.01,37.01,0,0,0,51.1,35.824a60.689,60.689,0,0,0-5.8,7.524q-2.664,4.068-5.256,8.1-1.512,2.376-3.168,5.112T33.5,61.96q-1.728,2.664-3.6,5.184a33.58,33.58,0,0,1-3.852,4.392,19.6,19.6,0,0,1-4.1,3.024,9.165,9.165,0,0,1-4.428,1.152,7.455,7.455,0,0,1-2.988-.576,2.812,2.812,0,0,1-1.692-1.656,2.267,2.267,0,0,0,1.62-.576,2.586,2.586,0,0,0-.036-3.384,2.335,2.335,0,0,0-1.728-.648,2.98,2.98,0,0,0-2.088.792,2.615,2.615,0,0,0-.864,2.016,3.549,3.549,0,0,0,.756,2.3A5.782,5.782,0,0,0,12.364,75.5a8.956,8.956,0,0,0,2.412.828,12.526,12.526,0,0,0,2.376.252,16.448,16.448,0,0,0,8.856-2.556,35.831,35.831,0,0,0,7.524-6.3,59.875,59.875,0,0,0,6.192-8.064q2.772-4.32,4.932-7.776H55.024q-1.08,1.8-2.34,3.96a39.976,39.976,0,0,0-2.268,4.536,37.3,37.3,0,0,0-1.692,4.932,19.569,19.569,0,0,0-.684,5.076,10.092,10.092,0,0,0,.324,2.592,6.031,6.031,0,0,0,1.044,2.16,4.983,4.983,0,0,0,1.872,1.476A6.584,6.584,0,0,0,54.088,77.152Z" fill="#fff"/>
    </g>
  </g>
</svg>
