<svg xmlns="http://www.w3.org/2000/svg" xmlns:xlink="http://www.w3.org/1999/xlink" width="350.732" height="296.211" viewBox="0 0 350.732 296.211">
  <defs>
    <linearGradient id="linear-gradient" x1="0.704" y1="-3.297" x2="0.412" y2="2.143" gradientUnits="objectBoundingBox">
      <stop offset="0.02" stop-color="#fff" stop-opacity="0"/>
      <stop offset="0.14" stop-color="#fff" stop-opacity="0.059"/>
      <stop offset="0.32" stop-color="#fff" stop-opacity="0.388"/>
      <stop offset="0.68" stop-color="#fff" stop-opacity="0.678"/>
      <stop offset="1" stop-color="#fff"/>
    </linearGradient>
    <linearGradient id="linear-gradient-2" x1="0.78" y1="-4.706" x2="0.487" y2="0.734" gradientUnits="objectBoundingBox">
      <stop offset="0.02" stop-color="#fff" stop-opacity="0"/>
      <stop offset="0.32" stop-color="#fff" stop-opacity="0.388"/>
      <stop offset="0.68" stop-color="#fff" stop-opacity="0.678"/>
      <stop offset="1" stop-color="#fff"/>
    </linearGradient>
    <linearGradient id="linear-gradient-3" x1="0.705" y1="-3.321" x2="0.413" y2="2.119" xlink:href="#linear-gradient-2"/>
    <linearGradient id="linear-gradient-4" x1="0.703" y1="-3.273" x2="0.41" y2="2.167" xlink:href="#linear-gradient-2"/>
    <linearGradient id="linear-gradient-5" x1="-0.203" y1="-0.563" x2="1.49" y2="1.998" xlink:href="#linear-gradient-2"/>
    <linearGradient id="linear-gradient-6" x1="3.317" y1="0.092" x2="-5.004" y2="1.299" gradientUnits="objectBoundingBox">
      <stop offset="0" stop-opacity="0"/>
      <stop offset="0.99"/>
    </linearGradient>
  </defs>
  <g id="data_analytics_" transform="translate(-0.04 0)">
    <path id="Path_121" data-name="Path 121" d="M353.9,216.575c-6.2,11.681-17.424,20.8-20.532,33.661-1.347,5.548-1.033,11.367-1.694,17.042-2.439,19.888-17.347,36.465-35.127,45.858-.745.407-1.5.779-2.253,1.152-11.664,5.7-24.3,8.809-37.185,10.749-7.835,1.169-15.763,1.9-23.624,2.541a979.766,979.766,0,0,1-98.256,2.829c-15.848-.322-32.009-1.076-46.917-6.336-.762-.263-1.516-.542-2.27-.847-12.1-4.7-22.828-12.4-32.331-21.227l-.432-.407A139.77,139.77,0,0,1,19.8,254.48a122.973,122.973,0,0,1-5.387-80.655C18.9,157.943,26.723,142.8,27.969,126.391c.906-12.367-2-24.886-.059-37.134,3.837-24.31,26.436-42.208,50.3-48.23s48.976-2.592,73.345.847c11.909,1.694,25.843,6.243,37.625,2.6,14.459-4.481,26.656-10.02,42.259-10.054,6.378,0,12.883.669,18.728,3.227,7.081,3.092,12.706,8.7,18.44,13.857,16.051,14.4,34.347,26.038,50.754,40.014s31.264,30.985,37.27,51.669c2.956,10.114,3.685,20.744,4,31.273C361.082,188.843,360.616,203.878,353.9,216.575Z" transform="translate(-9.98 -34.42)" fill="#7bc74d" opacity="0.18" style="isolation: isolate"/>
    <rect id="Rectangle_45" data-name="Rectangle 45" width="192.218" height="136.898" rx="15.27" transform="translate(81.601 95.8)" fill="#7bc74d"/>
    <rect id="Rectangle_46" data-name="Rectangle 46" width="168.755" height="114.553" transform="translate(93.332 105.574)" fill="#fff"/>
    <rect id="Rectangle_47" data-name="Rectangle 47" width="5.031" height="46.002" transform="translate(170.726 158.887)" fill="#7bc74d"/>
    <rect id="Rectangle_48" data-name="Rectangle 48" width="5.031" height="38.481" transform="translate(179.476 166.408)" fill="#7bc74d"/>
    <rect id="Rectangle_49" data-name="Rectangle 49" width="5.031" height="31.611" transform="translate(188.048 173.278)" fill="#7bc74d"/>
    <rect id="Rectangle_50" data-name="Rectangle 50" width="5.031" height="38.481" transform="translate(196.798 166.408)" fill="#7bc74d"/>
    <rect id="Rectangle_51" data-name="Rectangle 51" width="5.031" height="23.005" transform="translate(205.37 181.884)" fill="#7bc74d"/>
    <rect id="Rectangle_52" data-name="Rectangle 52" width="5.031" height="38.481" transform="translate(214.119 166.408)" fill="#7bc74d"/>
    <rect id="Rectangle_53" data-name="Rectangle 53" width="5.031" height="26.927" transform="translate(222.691 177.962)" fill="#7bc74d"/>
    <rect id="Rectangle_54" data-name="Rectangle 54" width="5.031" height="32.111" transform="translate(231.441 172.778)" fill="#7bc74d"/>
    <rect id="Rectangle_55" data-name="Rectangle 55" width="28.774" height="1.677" transform="translate(111.772 186.881)" fill="#7bc74d"/>
    <rect id="Rectangle_56" data-name="Rectangle 56" width="28.774" height="1.677" transform="translate(111.772 191.531)" fill="#7bc74d"/>
    <rect id="Rectangle_57" data-name="Rectangle 57" width="28.774" height="1.677" transform="translate(111.772 196.19)" fill="#7bc74d"/>
    <rect id="Rectangle_58" data-name="Rectangle 58" width="28.774" height="1.677" transform="translate(111.772 200.849)" fill="#7bc74d"/>
    <rect id="Rectangle_59" data-name="Rectangle 59" width="28.774" height="1.677" transform="translate(111.772 205.508)" fill="#7bc74d"/>
    <rect id="Rectangle_60" data-name="Rectangle 60" width="28.774" height="20.676" transform="translate(150.888 186.881)" fill="none"/>
    <path id="Path_122" data-name="Path 122" d="M173.21,185.5a18.72,18.72,0,1,0-.11,37.439v-6.522h-.076a12.384,12.384,0,1,1,12.384-12.384,11.171,11.171,0,0,1-.136,1.77h6.581a14.16,14.16,0,0,0,.076-1.584A18.711,18.711,0,0,0,173.21,185.5Z" transform="translate(-32.071 -57.53)" fill="#7bc74d"/>
    <rect id="Rectangle_61" data-name="Rectangle 61" width="59.606" height="58.488" rx="7.47" transform="translate(264.645 112.537)" fill="url(#linear-gradient)"/>
    <rect id="Rectangle_62" data-name="Rectangle 62" width="59.606" height="58.488" rx="7.47" transform="translate(187.921 28.003)" fill="url(#linear-gradient-2)"/>
    <rect id="Rectangle_63" data-name="Rectangle 63" width="59.606" height="58.488" rx="7.47" transform="translate(42.299 21.481)" fill="url(#linear-gradient-3)"/>
    <rect id="Rectangle_64" data-name="Rectangle 64" width="59.606" height="58.488" rx="7.47" transform="translate(24.96 109.166)" fill="url(#linear-gradient-4)"/>
    <path id="Path_123" data-name="Path 123" d="M276.971,202.559l-.661-.169,11.1-42.64h20.007v.686H287.94Z" transform="translate(-42.26 -24.436)" fill="#7bc74d"/>
    <path id="Path_124" data-name="Path 124" d="M215.644,82.156h-9.207l-24.962,83.967-.584-.059L205.911,81.47h9.732Z" transform="translate(-27.664 -12.462)" fill="#7bc74d"/>
    <path id="Path_125" data-name="Path 125" d="M157.918,145.589,135.929,76.606H118.76V75.92h17.669l.076.246,22.065,69.211Z" transform="translate(-18.16 -11.613)" fill="#7bc74d"/>
    <path id="Path_126" data-name="Path 126" d="M129.468,185.748l-15.636-17.432H98.5v-.686h15.636l15.848,17.661Z" transform="translate(-15.061 -25.642)" fill="#7bc74d"/>
    <path id="Path_127" data-name="Path 127" d="M195.225,209.74a18.694,18.694,0,0,1-18.635,17.135h-.11v-6.514a12.375,12.375,0,0,0,12.172-10.622Z" transform="translate(-35.443 -61.238)" fill="#7bc74d"/>
    <path id="Path_128" data-name="Path 128" d="M195.225,209.47a18.694,18.694,0,0,1-18.635,17.136h-.11v-6.522a12.367,12.367,0,0,0,12.172-10.613Z" transform="translate(-35.443 -61.197)" fill="url(#linear-gradient-5)"/>
    <path id="Path_129" data-name="Path 129" d="M111.93,194.794l8.716-18.3,20.134,11.765-13.857,28.587-10.808-6.014Z" transform="translate(-17.115 -26.997)" fill="#7bc74d"/>
    <path id="Path_130" data-name="Path 130" d="M113.88,193.375l7.327-14.2,16.56,9.673-12.553,25.191-8.538-6.539Z" transform="translate(-17.414 -27.407)" fill="#fff"/>
    <path id="Path_131" data-name="Path 131" d="M118.958,283.013l5.785,35.8-5.785,35.753,3.261,2.541-5.353-.229.466-36.956-10-26.029,1.211,27.029-5.828,34.847,2.541,1.389-5.811-.229,2.49-36.135-4.532-21.608s-4-15.7,0-18.262S118.958,283.013,118.958,283.013Z" transform="translate(-23.076 -72.009)" fill="#3e3e54"/>
    <path id="Path_132" data-name="Path 132" d="M97.334,220.14s14.069,1.575,17.551,4.117,7.09,6.573,7.09,9.826,1.4,19.287,1.4,19.287l5.811-13.476,3.253,1.855s-3.718,23.361-5.811,24.056-7.784-.847-7.784-.847l-.356,8.835s-19.058,1.855-21.608-2.092S88.3,226.594,97.334,220.14Z" transform="translate(-22.602 -62.829)" fill="#7bc74d"/>
    <path id="Path_133" data-name="Path 133" d="M111.343,214.389s-1.694,3.583-.788,6.514c0,0-5.226-.712-5.379-1.33s.652-6.1.051-7.784S111.343,214.389,111.343,214.389Z" transform="translate(-24.533 -61.491)" fill="#eea886"/>
    <path id="Path_134" data-name="Path 134" d="M105.028,197.6c2.058-.847,7.691-2.118,9.775,6.293s-1.084,8.818-4.362,8.852-8.8-5.294-9.317-7.013S99.175,200.123,105.028,197.6Z" transform="translate(-23.834 -59.287)" fill="#eea886"/>
    <path id="Path_135" data-name="Path 135" d="M136.133,237.988a2.288,2.288,0,0,1,.085-.678c.195-.618.847-.957,1.2-1.508a3.091,3.091,0,0,0,.339-1.135,2.753,2.753,0,0,1,.279-1.008.906.906,0,0,1,.847-.5c.474.068.72.593.847,1.05a13.011,13.011,0,0,1-.339,8.47c-.152.4-.432.847-.847.847a1.016,1.016,0,0,1-.407-.144c-.847-.457-2.05-.847-2.092-1.838C136.006,240.334,136.107,239.148,136.133,237.988Z" transform="translate(-29.256 -64.82)" fill="#eea886"/>
    <path id="Path_136" data-name="Path 136" d="M137.694,234.7l-3.947-3.7-.347.695,3.617,3.795S137.754,235.235,137.694,234.7Z" transform="translate(-28.853 -64.49)" fill="#7bc74d"/>
    <path id="Path_137" data-name="Path 137" d="M122.813,269.7s-2.041-.847-2.736-6.776S118.51,250.9,118.51,250.9v27.867h4.65Z" transform="translate(-26.575 -67.534)" fill="url(#linear-gradient-6)"/>
    <path id="Path_138" data-name="Path 138" d="M110.668,194.964a4.083,4.083,0,0,0-1.914-2.151,2.219,2.219,0,0,0-2.151-.119,2.185,2.185,0,0,0-1.77-.889,2.905,2.905,0,0,0-1.694.263,1.4,1.4,0,0,0-.72,1.491,8.928,8.928,0,0,0-2.541,0,1.881,1.881,0,0,0-.745.237,1.83,1.83,0,0,0-.593.847,8.665,8.665,0,0,0-.72,3.388,3.583,3.583,0,0,0-1.5,2.727,3.634,3.634,0,0,0,1.228,2.871,4.117,4.117,0,0,0,.457,3.312,2.838,2.838,0,0,0,2.99,1.22c0,.508.068,1.127.534,1.355a1.169,1.169,0,0,0,.517.085,3.9,3.9,0,0,0,1.448-.3,2.677,2.677,0,0,0,0,1.186.915.915,0,0,0,.847.695,1.355,1.355,0,0,0,.745-.432,3.854,3.854,0,0,0,1.237-1.643,16.466,16.466,0,0,0,.152-1.838c.136-.72.593-1.423.407-2.126s-.771-1.016-1.22-1.482-.72-1.3-.229-1.694,1.211-.042,1.652.4c.22.212.534.457.788.3s.178-.5.085-.754a10.637,10.637,0,0,1-.584-1.694,1.77,1.77,0,0,1,.474-1.694c.728-.618,1.906-.271,2.617-.847S110.939,195.7,110.668,194.964Z" transform="translate(-23.18 -58.49)" fill="#3e3e54"/>
  </g>
</svg>
