<?xml version="1.0" encoding="UTF-8"?>
<svg width="102px" height="102px" viewBox="0 0 102 102" version="1.1" xmlns="http://www.w3.org/2000/svg" xmlns:xlink="http://www.w3.org/1999/xlink">
    <!-- Generator: Sketch 64 (93537) - https://sketch.com -->
    <title>Group</title>
    <desc>Created with Sketch.</desc>
    <g id="Resume" stroke="none" stroke-width="1" fill="none" fill-rule="evenodd">
        <g id="Artboard" transform="translate(-227.000000, -148.000000)">
            <g id="Group" transform="translate(227.000000, 148.000000)">
                <circle id="Oval" fill="#FFFFFF" cx="51" cy="51" r="51"></circle>
                <path d="M54.088,77.152 C55.576,77.152 57.064,76.78 58.552,76.036 C60.04,75.292 61.516,74.32 62.98,73.12 C64.444,71.92 65.848,70.576 67.192,69.088 C68.536,67.6 69.772,66.112 70.9,64.624 C72.028,63.136 73.024,61.732 73.888,60.412 C74.752,59.092 75.424,58 75.904,57.136 L75.904,57.136 L75.256,56.848 C74.008,58.912 72.544,61.072 70.864,63.328 C69.184,65.584 67.432,67.648 65.608,69.52 C63.784,71.392 61.96,72.94 60.136,74.164 C58.312,75.388 56.632,76 55.096,76 C54.28,76 53.668,75.568 53.26,74.704 C52.852,73.84 52.648,72.856 52.648,71.752 C52.648,69.112 53.212,66.16 54.34,62.896 C55.468,59.632 56.956,56.332 58.804,52.996 C60.652,49.66 62.74,46.396 65.068,43.204 C67.396,40.012 69.76,37.18 72.16,34.708 C74.56,32.236 76.888,30.244 79.144,28.732 C81.4,27.22 83.368,26.464 85.048,26.464 C85.768,26.464 86.344,26.668 86.776,27.076 C87.208,27.484 87.592,27.94 87.928,28.444 C88.264,28.948 88.612,29.416 88.972,29.848 C89.332,30.28 89.8,30.496 90.376,30.496 C91.048,30.496 91.6,30.268 92.032,29.812 C92.464,29.356 92.68,28.792 92.68,28.12 C92.68,27.064 92.248,26.236 91.384,25.636 C90.52,25.036 89.584,24.736 88.576,24.736 C86.464,24.736 84.328,25.156 82.168,25.996 C80.008,26.836 77.872,27.952 75.76,29.344 C73.648,30.736 71.608,32.332 69.64,34.132 C67.672,35.932 65.812,37.816 64.06,39.784 C62.308,41.752 60.7,43.708 59.236,45.652 C57.772,47.596 56.488,49.384 55.384,51.016 L55.384,51.016 L45.016,51.016 C50.008,42.52 54.604,36.208 58.804,32.08 C63.004,27.952 66.976,25.888 70.72,25.888 C71.968,25.888 72.904,25.84 73.528,25.744 C74.152,25.648 74.464,25.312 74.464,24.736 C74.464,24.448 74.344,24.256 74.104,24.16 C73.864,24.064 73.624,24.016 73.384,24.016 C72.568,24.016 71.728,24.184 70.864,24.52 C70,24.856 68.92,25.024 67.624,25.024 C63.928,25.024 60.16,25.156 56.32,25.42 C52.48,25.684 48.772,26.116 45.196,26.716 C41.62,27.316 38.272,28.096 35.152,29.056 C32.032,30.016 29.308,31.192 26.98,32.584 C24.652,33.976 22.816,35.608 21.472,37.48 C20.128,39.352 19.456,41.464 19.456,43.816 C19.456,45.928 20.284,47.728 21.94,49.216 C23.596,50.704 25.912,51.448 28.888,51.448 C30.328,51.448 31.792,51.196 33.28,50.692 C34.768,50.188 36.124,49.468 37.348,48.532 C38.572,47.596 39.568,46.492 40.336,45.22 C41.104,43.948 41.488,42.52 41.488,40.936 C41.488,39.688 41.224,38.608 40.696,37.696 L40.696,37.696 L39.832,37.768 C40.072,38.248 40.264,38.728 40.408,39.208 C40.552,39.688 40.624,40.312 40.624,41.08 C40.624,42.472 40.264,43.756 39.544,44.932 C38.824,46.108 37.912,47.116 36.808,47.956 C35.704,48.796 34.492,49.444 33.172,49.9 C31.852,50.356 30.568,50.584 29.32,50.584 C28.312,50.584 27.424,50.404 26.656,50.044 C25.888,49.684 25.264,49.228 24.784,48.676 C24.304,48.124 23.944,47.488 23.704,46.768 C23.464,46.048 23.344,45.328 23.344,44.608 C23.344,41.824 24.4,39.28 26.512,36.976 C28.624,34.672 31.6,32.704 35.44,31.072 C39.28,29.44 43.888,28.168 49.264,27.256 C54.64,26.344 60.616,25.888 67.192,25.888 L67.192,25.888 L67.192,26.032 C63.784,26.8 60.772,28.048 58.156,29.776 C55.54,31.504 53.188,33.52 51.1,35.824 C49.012,38.128 47.08,40.636 45.304,43.348 C43.528,46.06 41.776,48.76 40.048,51.448 C39.04,53.032 37.984,54.736 36.88,56.56 C35.776,58.384 34.648,60.184 33.496,61.96 C32.344,63.736 31.144,65.464 29.896,67.144 C28.648,68.824 27.364,70.288 26.044,71.536 C24.724,72.784 23.356,73.792 21.94,74.56 C20.524,75.328 19.048,75.712 17.512,75.712 C16.408,75.712 15.412,75.52 14.524,75.136 C13.636,74.752 13.072,74.2 12.832,73.48 C13.504,73.48 14.044,73.288 14.452,72.904 C14.86,72.52 15.064,71.944 15.064,71.176 C15.064,70.504 14.848,69.952 14.416,69.52 C13.984,69.088 13.408,68.872 12.688,68.872 C11.872,68.872 11.176,69.136 10.6,69.664 C10.024,70.192 9.736,70.864 9.736,71.68 C9.736,72.592 9.988,73.36 10.492,73.984 C10.996,74.608 11.62,75.112 12.364,75.496 C13.108,75.88 13.912,76.156 14.776,76.324 C15.64,76.492 16.432,76.576 17.152,76.576 C20.32,76.576 23.272,75.724 26.008,74.02 C28.744,72.316 31.252,70.216 33.532,67.72 C35.812,65.224 37.876,62.536 39.724,59.656 C41.572,56.776 43.216,54.184 44.656,51.88 L44.656,51.88 L55.024,51.88 C54.304,53.08 53.524,54.4 52.684,55.84 C51.844,57.28 51.088,58.792 50.416,60.376 C49.744,61.96 49.18,63.604 48.724,65.308 C48.268,67.012 48.04,68.704 48.04,70.384 C48.04,71.296 48.148,72.16 48.364,72.976 C48.58,73.792 48.928,74.512 49.408,75.136 C49.888,75.76 50.512,76.252 51.28,76.612 C52.048,76.972 52.984,77.152 54.088,77.152 Z" id="H" fill="#000000" fill-rule="nonzero"></path>
            </g>
        </g>
    </g>
</svg>